<svg id="Calque_1" data-name="Calque 1" xmlns="http://www.w3.org/2000/svg" viewBox="0 0 344.53 344.53"><defs><style>.cls-1{fill:#fc0000;}.cls-2{fill:#fff;}</style></defs><title>jab</title><rect class="cls-1" width="344.53" height="344.53"/><path class="cls-2" d="M246.86,394.45q0,12.89-.76,21.87A46.07,46.07,0,0,1,242.82,431a16.44,16.44,0,0,1-7.34,8.22q-4.8,2.54-12.64,2.53a51.27,51.27,0,0,1-10.25-1,73.73,73.73,0,0,1-8.72-2.28,47.21,47.21,0,0,1-6.32-2.53,35.2,35.2,0,0,1-3.29-1.77l-10.37,40.21q16.19,11.14,39,11.13,24.53,0,39.07-6.57T284,460.45q7.59-11.88,9.86-28.7a279.1,279.1,0,0,0,2.28-37.3v-91.3H246.86Z" transform="translate(-124.52 -222.06)"/><path class="cls-2" d="M400.69,406.46q-9-11.25-24.4-15.81a40.5,40.5,0,0,0,19.35-17.32,48.67,48.67,0,0,0,6.44-24.15,50.31,50.31,0,0,0-2.9-16.82A48.15,48.15,0,0,0,391,317.69a42.32,42.32,0,0,0-12.9-10.5,35.54,35.54,0,0,0-16.95-4H292.36v42h49a12.1,12.1,0,0,1,8.34,3.16q3.54,3.16,3.54,10.5,0,8.34-4.17,11.12a16.25,16.25,0,0,1-9.23,2.79H306.82v38.44H347a11.19,11.19,0,0,1,9.11,4.42,17.14,17.14,0,0,1,3.54,11q0,7.08-4.18,10.87a14.65,14.65,0,0,1-10.24,3.79H306.82v41.48h38.36a112.24,112.24,0,0,0,24.91-2.66,65.48,65.48,0,0,0,20.61-8.21,41.06,41.06,0,0,0,13.91-14.29q5.07-8.73,5.06-20.87Q409.67,417.72,400.69,406.46Z" transform="translate(-124.52 -222.06)"/></svg>